<?xml version="1.0" encoding="utf-8"?>
<!-- Generator: Adobe Illustrator 16.0.0, SVG Export Plug-In . SVG Version: 6.00 Build 0)  -->
<!DOCTYPE svg PUBLIC "-//W3C//DTD SVG 1.1//EN" "http://www.w3.org/Graphics/SVG/1.1/DTD/svg11.dtd">
<svg version="1.1" id="Layer_1" xmlns="http://www.w3.org/2000/svg" xmlns:xlink="http://www.w3.org/1999/xlink" x="0px" y="0px"
	 width="300px" height="160px" viewBox="0 0 300 160" enable-background="new 0 0 300 160" xml:space="preserve">
<g id="Layer_1_copy">
	<g>
		<path fill="#8962AF" d="M10.108,121.637c1.619,0,2.852,0.334,3.702,1.002c0.828,0.652,1.241,1.584,1.241,2.795
			c0,1.207-0.414,2.14-1.241,2.793c-0.85,0.668-2.083,1.002-3.702,1.002c-1.618,0-2.852-0.334-3.701-1.002
			c-0.828-0.653-1.241-1.586-1.241-2.793c0-1.211,0.414-2.143,1.241-2.795C7.257,121.971,8.491,121.637,10.108,121.637z
			 M10.108,126.908c1.392,0,2.087-0.492,2.087-1.477s-0.696-1.478-2.087-1.478s-2.086,0.491-2.086,1.478
			C8.022,126.416,8.718,126.908,10.108,126.908z"/>
		<path fill="#8962AF" d="M25.475,121.741v7.381H22.18l-3.295-3.953v3.953H16.03v-7.381h3.295l3.295,3.954v-3.954H25.475z"/>
		<path fill="#8962AF" d="M34.854,121.741v2.319h-2.856v5.062h-2.855v-5.062h-2.855v-2.319H34.854z"/>
		<path fill="#8962AF" d="M41.488,121.741l3.295,7.381h-2.965l-0.56-1.267h-3.712l-0.561,1.267H34.02l3.295-7.381H41.488z
			 M38.402,125.958h1.999l-1-2.244L38.402,125.958z"/>
		<path fill="#8962AF" d="M48.341,129.122h-2.855v-7.381h5.085c1.208,0,2.131,0.253,2.768,0.76c0.623,0.483,0.934,1.181,0.934,2.088
			c0,1.146-0.491,1.954-1.472,2.425l1.472,2.108h-2.966l-1.175-1.687h-1.79L48.341,129.122L48.341,129.122z M48.341,125.115h2.328
			c0.498,0,0.747-0.176,0.747-0.526s-0.249-0.526-0.747-0.526h-2.328V125.115z"/>
		<path fill="#8962AF" d="M55.25,121.741h2.855v7.381H55.25V121.741z"/>
		<path fill="#8962AF" d="M64.025,121.637c1.619,0,2.852,0.334,3.702,1.002c0.828,0.652,1.241,1.584,1.241,2.795
			c0,1.207-0.414,2.14-1.241,2.793c-0.85,0.668-2.083,1.002-3.702,1.002c-1.618,0-2.852-0.334-3.701-1.002
			c-0.828-0.653-1.242-1.586-1.242-2.793c0-1.211,0.414-2.143,1.242-2.795C61.173,121.971,62.408,121.637,64.025,121.637z
			 M64.025,126.908c1.392,0,2.087-0.492,2.087-1.477s-0.696-1.478-2.087-1.478s-2.086,0.491-2.086,1.478
			C61.939,126.416,62.635,126.908,64.025,126.908z"/>
		<path fill="#8962AF" d="M74.053,129.122v-7.381h5.986c0.813,0,1.431,0.169,1.856,0.507c0.41,0.322,0.615,0.787,0.615,1.393
			c0,0.842-0.399,1.408-1.197,1.696c1.017,0.246,1.526,0.858,1.526,1.835c0,0.619-0.212,1.096-0.637,1.434
			c-0.439,0.346-1.072,0.518-1.9,0.518L74.053,129.122L74.053,129.122z M76.909,124.482h2.229c0.344,0,0.517-0.123,0.517-0.368
			c0-0.247-0.172-0.37-0.517-0.37h-2.229V124.482z M76.909,127.119h2.559c0.344,0,0.517-0.123,0.517-0.37
			c0-0.245-0.172-0.368-0.517-0.368h-2.559V127.119z"/>
		<path fill="#8962AF" d="M90.99,121.741l3.295,7.381H91.32l-0.561-1.267h-3.712l-0.56,1.267h-2.965l3.295-7.381H90.99z
			 M87.903,125.958h1.999l-1-2.244L87.903,125.958z"/>
		<path fill="#8962AF" d="M99.248,126.328c-1.911-0.057-3.2-0.273-3.865-0.654c-0.571-0.314-0.857-0.885-0.857-1.707
			c0-0.787,0.333-1.363,1-1.729c0.739-0.4,1.98-0.602,3.723-0.602c1.736,0,2.955,0.231,3.658,0.695
			c0.63,0.408,0.945,1.07,0.945,1.993h-2.855c0-0.239-0.117-0.396-0.352-0.466c-0.227-0.076-0.692-0.115-1.396-0.115
			c-0.768,0-1.266,0.029-1.493,0.086c-0.161,0.041-0.242,0.125-0.242,0.252c0,0.12,0.081,0.2,0.242,0.243
			c0.205,0.042,0.703,0.077,1.493,0.104c1.904,0.07,3.189,0.295,3.855,0.676c0.579,0.33,0.868,0.906,0.868,1.729
			c0,0.794-0.333,1.382-1,1.762c-0.747,0.422-1.988,0.633-3.724,0.633c-1.742,0-2.983-0.232-3.723-0.696
			c-0.667-0.413-1-1.079-1-1.992h2.855c0,0.237,0.113,0.394,0.34,0.464c0.227,0.077,0.736,0.116,1.526,0.116
			c0.769,0,1.267-0.028,1.494-0.084c0.168-0.043,0.253-0.127,0.253-0.254c0-0.142-0.081-0.238-0.242-0.296
			C100.512,126.4,100.01,126.35,99.248,126.328z"/>
		<path fill="#8962AF" d="M105.147,121.741h2.855v7.381h-2.855V121.741z M115.032,121.741l-3.625,3.69l3.625,3.689h-3.405
			l-3.625-3.689l3.625-3.69H115.032z"/>
		<path fill="#8962AF" d="M124.115,121.741v2.108h-5.271v0.633h5.162v1.897h-5.162v0.632h5.271v2.109h-8.127v-7.381L124.115,121.741
			L124.115,121.741z"/>
		<path fill="#8962AF" d="M133.472,121.741v2.319h-2.856v5.062h-2.855v-5.062h-2.855v-2.319H133.472z"/>
		<path fill="#8962AF" d="M134.538,129.122v-7.381h5.986c0.813,0,1.431,0.169,1.856,0.507c0.41,0.322,0.615,0.787,0.615,1.393
			c0,0.842-0.399,1.408-1.197,1.696c1.017,0.246,1.526,0.858,1.526,1.835c0,0.619-0.212,1.096-0.637,1.434
			c-0.439,0.346-1.072,0.518-1.9,0.518L134.538,129.122L134.538,129.122z M137.393,124.482h2.229c0.344,0,0.516-0.123,0.516-0.368
			c0-0.247-0.172-0.37-0.516-0.37h-2.229V124.482z M137.393,127.119h2.559c0.344,0,0.516-0.123,0.516-0.37
			c0-0.245-0.172-0.368-0.516-0.368h-2.559V127.119z"/>
		<path fill="#8962AF" d="M151.475,121.741l3.295,7.381h-2.965l-0.561-1.267h-3.714l-0.559,1.267h-2.966l3.294-7.381H151.475z
			 M148.387,125.958h1.999l-1-2.244L148.387,125.958z"/>
		<path fill="#8962AF" d="M158.58,121.741v5.062h4.395v2.319h-7.25v-7.381H158.58z"/>
		<path fill="#8962AF" d="M166.895,121.741v5.062h4.395v2.319h-7.249v-7.381H166.895z"/>
		<path fill="#8962AF" d="M184.073,121.741l3.294,7.381h-2.965l-0.561-1.267h-3.714l-0.56,1.267h-2.965l3.293-7.381H184.073z
			 M180.986,125.958h1.998l-0.998-2.244L180.986,125.958z"/>
		<path fill="#8962AF" d="M192.035,126.328c-1.91-0.057-3.199-0.273-3.865-0.654c-0.57-0.314-0.857-0.885-0.857-1.707
			c0-0.787,0.334-1.363,1-1.729c0.739-0.4,1.979-0.602,3.724-0.602c1.735,0,2.955,0.231,3.657,0.695
			c0.631,0.408,0.945,1.07,0.945,1.993h-2.856c0-0.239-0.116-0.396-0.351-0.466c-0.229-0.076-0.692-0.115-1.396-0.115
			c-0.77,0-1.268,0.029-1.494,0.086c-0.161,0.041-0.241,0.125-0.241,0.252c0,0.12,0.08,0.2,0.241,0.243
			c0.205,0.042,0.703,0.077,1.494,0.104c1.904,0.07,3.189,0.295,3.855,0.676c0.577,0.33,0.866,0.906,0.866,1.729
			c0,0.794-0.333,1.382-0.999,1.762c-0.746,0.422-1.988,0.633-3.724,0.633c-1.743,0-2.983-0.232-3.724-0.696
			c-0.666-0.413-1-1.079-1-1.992h2.856c0,0.237,0.112,0.394,0.339,0.464c0.229,0.077,0.736,0.116,1.527,0.116
			c0.77,0,1.267-0.028,1.494-0.084c0.168-0.043,0.252-0.127,0.252-0.254c0-0.142-0.08-0.238-0.241-0.296
			C193.299,126.4,192.797,126.35,192.035,126.328z"/>
		<path fill="#8962AF" d="M202.029,126.328c-1.91-0.057-3.199-0.273-3.865-0.654c-0.571-0.314-0.857-0.885-0.857-1.707
			c0-0.787,0.334-1.363,1-1.729c0.739-0.4,1.979-0.602,3.723-0.602c1.736,0,2.955,0.231,3.658,0.695
			c0.631,0.408,0.944,1.07,0.944,1.993h-2.854c0-0.239-0.117-0.396-0.353-0.466c-0.228-0.076-0.692-0.115-1.396-0.115
			c-0.77,0-1.268,0.029-1.494,0.086c-0.161,0.041-0.241,0.125-0.241,0.252c0,0.12,0.08,0.2,0.241,0.243
			c0.205,0.042,0.703,0.077,1.494,0.104c1.904,0.07,3.188,0.295,3.854,0.676c0.578,0.33,0.867,0.906,0.867,1.729
			c0,0.794-0.333,1.382-0.999,1.762c-0.746,0.422-1.988,0.633-3.725,0.633c-1.742,0-2.982-0.232-3.723-0.696
			c-0.666-0.413-1-1.079-1-1.992h2.856c0,0.237,0.112,0.394,0.339,0.464c0.229,0.077,0.736,0.116,1.527,0.116
			c0.769,0,1.267-0.028,1.494-0.084c0.168-0.043,0.252-0.127,0.252-0.254c0-0.142-0.08-0.238-0.241-0.296
			C203.293,126.4,202.791,126.35,202.029,126.328z"/>
		<path fill="#8962AF" d="M212.3,121.637c1.618,0,2.853,0.334,3.702,1.002c0.826,0.652,1.239,1.584,1.239,2.795
			c0,1.207-0.413,2.14-1.239,2.793c-0.85,0.668-2.084,1.002-3.702,1.002s-2.852-0.334-3.7-1.002
			c-0.828-0.653-1.242-1.586-1.242-2.793c0-1.211,0.414-2.143,1.242-2.795C209.448,121.971,210.682,121.637,212.3,121.637z
			 M212.3,126.908c1.392,0,2.087-0.492,2.087-1.477s-0.695-1.478-2.087-1.478s-2.086,0.491-2.086,1.478
			C210.214,126.416,210.908,126.908,212.3,126.908z"/>
		<path fill="#8962AF" d="M227.752,125.854c-0.104,1.076-0.559,1.901-1.372,2.479c-0.842,0.6-2.021,0.896-3.537,0.896
			c-1.618,0-2.852-0.334-3.7-1.002c-0.828-0.653-1.242-1.586-1.242-2.793c0-1.211,0.414-2.143,1.242-2.795
			c0.85-0.668,2.082-1.002,3.7-1.002c1.517,0,2.695,0.299,3.537,0.896c0.813,0.576,1.271,1.402,1.372,2.478h-2.889
			c-0.204-0.702-0.879-1.055-2.021-1.055c-1.392,0-2.086,0.492-2.086,1.478c0,0.983,0.694,1.477,2.086,1.477
			c1.144,0,1.816-0.352,2.021-1.055h2.889V125.854z"/>
		<path fill="#8962AF" d="M228.466,121.741h2.854v7.381h-2.854V121.741z"/>
		<path fill="#8962AF" d="M239.45,121.741l3.295,7.381h-2.966l-0.561-1.267h-3.713l-0.561,1.267h-2.965l3.295-7.381H239.45z
			 M236.363,125.958h2l-1-2.244L236.363,125.958z"/>
		<path fill="#8962AF" d="M250.214,121.741v2.319h-2.856v5.062h-2.854v-5.062h-2.855v-2.319H250.214z"/>
		<path fill="#8962AF" d="M250.982,121.741h2.854v7.381h-2.854V121.741z"/>
		<path fill="#8962AF" d="M259.714,121.637c1.618,0,2.853,0.334,3.702,1.002c0.826,0.652,1.24,1.584,1.24,2.795
			c0,1.207-0.414,2.14-1.24,2.793c-0.85,0.668-2.084,1.002-3.702,1.002s-2.853-0.334-3.7-1.002
			c-0.828-0.653-1.242-1.586-1.242-2.793c0-1.211,0.414-2.143,1.242-2.795C256.861,121.971,258.096,121.637,259.714,121.637z
			 M259.714,126.908c1.392,0,2.087-0.492,2.087-1.477s-0.695-1.478-2.087-1.478s-2.086,0.491-2.086,1.478
			C257.628,126.416,258.322,126.908,259.714,126.908z"/>
		<path fill="#8962AF" d="M275.034,121.741v7.381h-3.294l-3.297-3.953v3.953h-2.854v-7.381h3.294l3.296,3.954v-3.954H275.034z"/>
	</g>
	
		<linearGradient id="SVGID_1_" gradientUnits="userSpaceOnUse" x1="310.874" y1="-114.9927" x2="310.874" y2="-206.0644" gradientTransform="matrix(1 0 0 -1 -156 -85)">
		<stop  offset="0" style="stop-color:#E0BCFF"/>
		<stop  offset="1" style="stop-color:#9B76C0"/>
	</linearGradient>
	<path fill="url(#SVGID_1_)" d="M18.692,29.68c-1.865,0-2.538,0.88-2.745,1.968c-0.208,1.087-1.657,12.431-1.917,14.347
		c-0.259,1.917,1.088,3.004,2.797,3.004s180.09,0,182.835,0c2.746,0,3.938,0.881,3.678,3.005
		c-0.259,2.123-5.023,39.415-5.127,41.798c-0.104,2.384,1.346,3.574,2.745,3.574c1.397,0,12.17,0,13.88,0
		c1.711,0,2.279-0.728,2.592-3.419c0.311-2.691,4.973-41.021,5.075-42.212c0.104-1.191,0.621-2.642,3.47-2.642
		c2.851,0,63.188,0,65.313,0c2.123,0,2.692-0.725,2.849-2.124c0.155-1.398,1.502-13.157,1.604-14.917
		c0.104-1.761-0.568-2.382-2.692-2.382S18.692,29.68,18.692,29.68z"/>
	
		<linearGradient id="SVGID_2_" gradientUnits="userSpaceOnUse" x1="198.3379" y1="-114.9917" x2="198.3379" y2="-206.0621" gradientTransform="matrix(1 0 0 -1 -156 -85)">
		<stop  offset="0" style="stop-color:#E0BCFF"/>
		<stop  offset="1" style="stop-color:#9B76C0"/>
	</linearGradient>
	<path fill="url(#SVGID_2_)" d="M75.621,52.438H16.876c-3.593,0-4.114,1.667-4.218,2.969c-0.104,1.302-6.979,58.431-7.343,60.879
		c-0.364,2.448,2.396,3.28,3.802,3.28c1.406,0,56.245,0,59.214,0c2.968,0,3.542-2.03,3.698-3.229
		c0.156-1.197,4.478-35.83,4.478-37.341c0-1.51-1.457-2.968-3.229-2.968c-1.771,0-35.414,0-36.924,0s-2.76,2.083-2.916,3.333
		c-0.156,1.25-1.459,10.313-1.511,12.76c-0.052,2.446,0.313,3.437,3.073,3.437s14.687,0,16.561,0c1.875,0,3.281,0.678,3.177,2.239
		s-1.094,2.345-3.698,2.345s-19.477,0-21.508,0c-2.031,0-2.812-1.252-2.864-2.137c-0.052-0.885,2.969-24.008,2.969-24.008
		s0.989-2.396,3.229-2.396c2.24,0,38.487,0,41.663,0c3.177,0,3.333-2.344,3.333-2.969s1.302-12.03,1.51-13.541
		C79.579,53.583,78.33,52.438,75.621,52.438z"/>
	
		<linearGradient id="SVGID_3_" gradientUnits="userSpaceOnUse" x1="337.4219" y1="-114.9917" x2="337.4219" y2="-206.0621" gradientTransform="matrix(1 0 0 -1 -156 -85)">
		<stop  offset="0" style="stop-color:#E0BCFF"/>
		<stop  offset="1" style="stop-color:#9B76C0"/>
	</linearGradient>
	<path fill="url(#SVGID_3_)" d="M212.422,100.143c-1.262,0-15.34,0-19.436,0c-0.254,0-0.649,0-1.151,0c-4.617,0-18.522,0-20.354,0
		c-2.03,0-2.813-1.252-2.864-2.137c-0.035-0.586,1.278-10.93,2.171-17.847c0.23-1.838,2.852-22.678,2.926-24.544
		c0.078-1.953-1.953-3.177-3.281-3.177h-11.604c-3.595,0-4.115,1.667-4.22,2.969c-0.104,1.302-6.979,58.431-7.343,60.879
		c-0.364,2.448,2.396,3.28,3.802,3.28s56.244,0,59.213,0c2.97,0,3.543-2.03,3.699-3.229c0.063-0.474,0.776-6.195,1.617-13.021
		C215.823,101.451,213.904,100.143,212.422,100.143z"/>
	
		<linearGradient id="SVGID_4_" gradientUnits="userSpaceOnUse" x1="341.9746" y1="-114.9912" x2="341.9746" y2="-206.0638" gradientTransform="matrix(1 0 0 -1 -156 -85)">
		<stop  offset="0" style="stop-color:#E0BCFF"/>
		<stop  offset="1" style="stop-color:#9B76C0"/>
	</linearGradient>
	<path fill="url(#SVGID_4_)" d="M194.596,52.438H182.99c-3.594,0-4.114,1.667-4.219,2.969L174.076,94.2
		c-0.078,1.952,1.953,3.176,3.281,3.176h11.604c3.595,0,4.114-1.668,4.22-2.969l4.694-38.793
		C197.955,53.661,195.924,52.438,194.596,52.438z"/>
	
		<linearGradient id="SVGID_5_" gradientUnits="userSpaceOnUse" x1="269.6211" y1="-114.9917" x2="269.6211" y2="-206.0621" gradientTransform="matrix(1 0 0 -1 -156 -85)">
		<stop  offset="0" style="stop-color:#E0BCFF"/>
		<stop  offset="1" style="stop-color:#9B76C0"/>
	</linearGradient>
	<path fill="url(#SVGID_5_)" d="M147.438,52.438c-1.261,0-15.34,0-19.435,0c-0.255,0-0.65,0-1.152,0c-3.92,0-14.529,0-27.039,0
		h-4.36h-7.245c-3.593,0-4.115,1.667-4.218,2.969c-0.105,1.302-6.979,58.431-7.344,60.879c-0.365,2.448,2.396,3.28,3.801,3.28
		c1.406,0,56.246,0,59.214,0c2.969,0,3.542-2.03,3.698-3.229c0.063-0.474,0.778-6.195,1.619-13.021
		c0.229-1.864-1.69-3.174-3.173-3.174c-1.261,0-15.34,0-19.435,0c-0.255,0-0.65,0-1.152,0c-4.617,0-18.877,0-20.709,0
		c-2.031,0-2.458-1.252-2.51-2.137c-0.01-0.158-0.216-2.367,2.206-2.367c23.829,0,40.632,0,42.239,0
		c2.969,0,3.542-2.031,3.699-3.229c0.062-0.475,0.777-6.195,1.618-13.022c0.229-1.864-1.69-3.173-3.173-3.173
		c-1.261,0-15.34,0-19.435,0c-0.255,0-0.65,0-1.152,0c-3.252,0-11.104,0-20.828,0c-1.718,0-2.33-1.448-2.23-2.249
		c0.083-0.672,0.903-2.104,2.309-2.104c23.727,0,40.443,0,42.045,0c2.969,0,3.542-2.031,3.698-3.229
		c0.063-0.474,0.778-6.196,1.619-13.022C150.839,53.747,148.92,52.438,147.438,52.438z"/>
	
		<linearGradient id="SVGID_6_" gradientUnits="userSpaceOnUse" x1="411.9326" y1="-114.9917" x2="411.9326" y2="-206.0621" gradientTransform="matrix(1 0 0 -1 -156 -85)">
		<stop  offset="0" style="stop-color:#E0BCFF"/>
		<stop  offset="1" style="stop-color:#9B76C0"/>
	</linearGradient>
	<path fill="url(#SVGID_6_)" d="M289.753,52.438c-1.263,0-15.341,0-19.437,0c-0.256,0-0.65,0-1.151,0c-3.92,0-14.529,0-27.039,0
		h-4.36h-7.244c-3.595,0-4.114,1.667-4.22,2.969c-0.104,1.302-6.979,58.431-7.344,60.879s2.396,3.28,3.802,3.28s56.245,0,59.215,0
		c2.969,0,3.541-2.03,3.697-3.229c0.063-0.474,0.777-6.195,1.619-13.021c0.229-1.864-1.691-3.174-3.173-3.174
		c-1.263,0-15.341,0-19.437,0c-0.255,0-0.649,0-1.152,0c-4.616,0-18.875,0-20.709,0c-2.031,0-2.457-1.252-2.51-2.137
		c-0.011-0.158-0.217-2.367,2.205-2.367c23.83,0,40.633,0,42.239,0c2.968,0,3.542-2.031,3.698-3.229
		c0.063-0.475,0.777-6.195,1.617-13.022c0.229-1.864-1.688-3.173-3.172-3.173c-1.262,0-15.34,0-19.436,0c-0.254,0-0.648,0-1.152,0
		c-3.252,0-11.104,0-20.826,0c-1.719,0-2.33-1.448-2.23-2.249c0.083-0.672,0.902-2.104,2.309-2.104c23.728,0,40.441,0,42.045,0
		c2.969,0,3.543-2.031,3.699-3.229c0.062-0.474,0.776-6.196,1.617-13.022C293.152,53.747,291.234,52.438,289.753,52.438z"/>
	<path fill="#8962AF" d="M283.967,123.225c-0.699-0.963-1.833-1.588-3.113-1.588c-0.854,0-1.645,0.278-2.283,0.75
		c-0.053,0.213-0.168,0.937,0.443,1.746c0.815,1.082,2.295,2,2.194,3.35c-0.001,0.017-0.003,0.031-0.006,0.049
		c-0.106,0.996-1.214,1.432-1.958,1.445c0.488,0.226,1.033,0.354,1.609,0.354c0.836,0,1.611-0.27,2.242-0.725
		c-0.386-0.344-0.533-0.754-0.535-1.182c-0.006-0.915,0.643-1.92,1.014-2.584C283.907,124.241,283.98,123.664,283.967,123.225z
		 M279.014,124.133c-0.611-0.811-0.496-1.533-0.443-1.746c-0.817,0.604-1.387,1.526-1.528,2.584
		c-0.021,0.168-0.035,0.338-0.035,0.512c0,1.551,0.918,2.886,2.238,3.494c0.745-0.015,1.851-0.449,1.958-1.445
		c0.003-0.016,0.005-0.032,0.006-0.049C281.309,126.133,279.829,125.215,279.014,124.133z M283.967,123.225
		c0.014,0.439-0.06,1.018-0.393,1.616c-0.371,0.664-1.02,1.669-1.014,2.584c0.002,0.429,0.148,0.837,0.535,1.181
		c0.93-0.666,1.547-1.736,1.6-2.955c0.003-0.057,0.005-0.11,0.005-0.168C284.7,124.639,284.427,123.857,283.967,123.225z"/>
	<path fill="#FFFFFF" d="M284.682,125.634l-0.002,0.003l-0.002,0.006c-0.023,0.094-0.062,0.187-0.104,0.273s-0.09,0.174-0.143,0.255
		c-0.107,0.163-0.236,0.312-0.377,0.443c-0.285,0.264-0.631,0.454-0.996,0.581c-0.127,0.046-0.257,0.08-0.389,0.111
		c0.002-0.047,0.006-0.092,0.012-0.137c0.016-0.145,0.043-0.29,0.082-0.434c0.074-0.287,0.188-0.566,0.317-0.84
		c0.129-0.271,0.274-0.537,0.422-0.806l0.11-0.2c0.035-0.068,0.067-0.14,0.103-0.209l0.024-0.053l0.022-0.054l0.041-0.109
		c0.03-0.071,0.05-0.146,0.073-0.221c0.023-0.073,0.039-0.149,0.055-0.226c0.02-0.074,0.027-0.151,0.039-0.229
		c0.014-0.075,0.016-0.153,0.021-0.229c0.006-0.078,0.005-0.154,0.005-0.23c0-0.021-0.002-0.044-0.003-0.066
		c-0.02-0.027-0.039-0.058-0.061-0.084c0.002,0.051,0.002,0.1,0.002,0.15c-0.005,0.074-0.007,0.15-0.016,0.227
		c-0.01,0.073-0.014,0.149-0.03,0.223c-0.014,0.074-0.024,0.148-0.047,0.222c-0.021,0.073-0.034,0.146-0.062,0.216
		c-0.026,0.071-0.047,0.143-0.078,0.211l-0.045,0.104l-0.021,0.053l-0.025,0.049c-0.035,0.067-0.068,0.133-0.105,0.199l-0.116,0.195
		c-0.153,0.264-0.313,0.527-0.452,0.801c-0.142,0.273-0.271,0.557-0.363,0.855c-0.049,0.147-0.084,0.303-0.104,0.463
		c-0.009,0.065-0.014,0.137-0.016,0.205c-0.082,0.015-0.164,0.029-0.248,0.039l-0.145,0.017l-0.146,0.011
		c-0.194,0.016-0.39,0.02-0.585,0.018c-0.008,0-0.016,0-0.023,0l0.002-0.011c0-0.026,0.002-0.051,0.002-0.075l-0.004-0.076
		c0-0.051-0.007-0.101-0.012-0.148c-0.023-0.2-0.086-0.393-0.165-0.573c-0.08-0.181-0.183-0.351-0.294-0.51
		s-0.236-0.308-0.363-0.451c-0.129-0.143-0.261-0.282-0.395-0.417c-0.268-0.271-0.539-0.535-0.787-0.816
		c-0.063-0.071-0.121-0.141-0.182-0.215l-0.043-0.056l-0.039-0.058l-0.082-0.112c-0.098-0.155-0.187-0.319-0.25-0.493
		c-0.063-0.173-0.104-0.354-0.117-0.539c-0.004-0.045-0.004-0.092-0.008-0.138c0.004-0.047,0-0.093,0.006-0.138
		c0.007-0.088,0.02-0.178,0.043-0.26c-0.035,0.025-0.07,0.051-0.104,0.076c-0.015,0.059-0.023,0.114-0.031,0.174
		c-0.008,0.049-0.008,0.098-0.012,0.145c0,0.049-0.002,0.098,0,0.146c0.008,0.194,0.045,0.389,0.104,0.574
		c0.063,0.186,0.149,0.361,0.249,0.528l0.082,0.121l0.042,0.061l0.042,0.058c0.058,0.076,0.119,0.152,0.181,0.226
		c0.248,0.296,0.517,0.565,0.777,0.84c0.26,0.274,0.515,0.554,0.727,0.856c0.107,0.15,0.2,0.311,0.273,0.477
		c0.071,0.167,0.126,0.342,0.146,0.52c0.004,0.045,0.012,0.088,0.01,0.135l0.004,0.064c0,0.023-0.002,0.045-0.004,0.067v0.01
		c-0.022-0.001-0.045-0.003-0.067-0.004l-0.073-0.002c-0.021-0.002-0.049-0.005-0.072-0.007l-0.147-0.014
		c-0.099-0.008-0.194-0.022-0.291-0.033c-0.097-0.012-0.19-0.031-0.288-0.047c-0.096-0.016-0.189-0.041-0.285-0.061
		c-0.096-0.021-0.188-0.05-0.283-0.074c-0.185-0.061-0.369-0.119-0.547-0.199c-0.18-0.075-0.352-0.166-0.517-0.269
		c-0.167-0.099-0.324-0.214-0.472-0.338c-0.149-0.126-0.287-0.264-0.414-0.412c-0.127-0.147-0.239-0.308-0.34-0.476
		c-0.1-0.167-0.187-0.348-0.244-0.531l-0.002-0.006l-0.002-0.004c-0.004-0.008-0.012-0.016-0.017-0.021
		c-0.006,0.036-0.01,0.073-0.015,0.111c0.047,0.173,0.115,0.337,0.195,0.496c0.092,0.18,0.202,0.35,0.324,0.511
		c0.123,0.159,0.262,0.31,0.411,0.444c0.149,0.137,0.312,0.261,0.481,0.371c0.168,0.109,0.348,0.208,0.531,0.291
		c0.184,0.086,0.373,0.154,0.565,0.218c0.099,0.024,0.194,0.056,0.292,0.079c0.1,0.021,0.195,0.049,0.297,0.064
		c0.1,0.018,0.197,0.037,0.298,0.051c0.103,0.012,0.202,0.029,0.3,0.033l0.148,0.012c0.025,0.004,0.047,0.006,0.076,0.007
		l0.076,0.004c0.019,0,0.037,0.001,0.056,0.003l-0.011,0.055c-0.041,0.17-0.116,0.332-0.227,0.471
		c-0.105,0.143-0.244,0.262-0.395,0.359c-0.151,0.1-0.317,0.178-0.489,0.236c-0.172,0.063-0.353,0.104-0.533,0.125
		c-0.128,0.016-0.259,0.02-0.386,0.008c0.124,0.066,0.254,0.125,0.386,0.18c0.007-0.002,0.013-0.002,0.021-0.004
		c0.194-0.02,0.388-0.062,0.575-0.123c0.187-0.063,0.367-0.147,0.533-0.258c0.084-0.055,0.166-0.113,0.239-0.18
		c0.074-0.067,0.146-0.141,0.206-0.223c0.126-0.158,0.217-0.349,0.266-0.547l0.017-0.078c0.001-0.004,0.001-0.01,0.002-0.016
		c0.014,0,0.026,0,0.041,0c0.1-0.001,0.198,0.003,0.301-0.004c0.101-0.005,0.201-0.007,0.302-0.018l0.15-0.016l0.148-0.021
		c0.076-0.01,0.151-0.023,0.229-0.039c0.002,0.029,0.004,0.063,0.009,0.092c0.021,0.161,0.065,0.318,0.134,0.466
		c0.067,0.148,0.162,0.28,0.27,0.399c0.057,0.053,0.107,0.107,0.169,0.152c0.037-0.024,0.075-0.052,0.112-0.078
		c-0.006-0.006-0.01-0.01-0.016-0.016c-0.056-0.049-0.1-0.107-0.148-0.162c-0.088-0.113-0.161-0.238-0.217-0.371
		c-0.054-0.133-0.082-0.272-0.099-0.414c-0.004-0.039-0.007-0.076-0.008-0.113c0.151-0.038,0.303-0.082,0.448-0.141
		c0.188-0.074,0.371-0.164,0.545-0.271c0.173-0.109,0.33-0.237,0.475-0.383c0.143-0.146,0.266-0.309,0.364-0.483
		c0.081-0.144,0.146-0.291,0.188-0.45c0.002-0.047,0.006-0.094,0.008-0.142L284.682,125.634z"/>
	<path fill="#FFFFFF" d="M281.895,122.631c-0.326,0.092-0.5,0.342-0.5,0.342l0.051,0.338c0.519-0.319,1.123-0.473,1.123-0.473
		c-0.568,0.221-1.15,0.691-1.15,0.691s-0.357-0.852-1.134-0.924c-0.775-0.07-1.202,0.187-1.202,0.187s0.289,0.17,0.638,0.601
		c0.351,0.434,0.771,0.569,0.919,0.557c0.119-0.215,0.329-0.321,0.329-0.321s-0.647-0.679-1.464-0.793
		c0.298-0.015,1.111,0.146,1.708,0.706c-0.239,0.215-0.437,0.68-0.18,1.18c0.258,0.5,0.815,1.072,0.815,1.072
		s0.088,1.053-0.06,2.061c-0.146,1.01-0.622,1.465-0.622,1.465l0.081,0.012c0,0,0.569-0.475,0.733-1.502
		c0.166-1.028-0.014-2.057-0.014-2.057s0.32-0.779,0.234-1.362c-0.088-0.582-0.579-0.634-0.579-0.634s0.295,0.809,0.243,1.605
		c-0.143-0.954-0.473-1.703-0.473-1.703s0.651-0.018,0.877,0.156c0.303-0.146,0.426-0.402,0.48-0.684
		c0.057-0.279,0.165-0.418,0.165-0.418S282.221,122.54,281.895,122.631z"/>
</g>
</svg>
