<?xml version="1.0" encoding="UTF-8"?>
<svg id="Layer_1" xmlns="http://www.w3.org/2000/svg" version="1.1" xmlns:xlink="http://www.w3.org/1999/xlink" viewBox="0 0 320 300">
  <!-- Generator: Adobe Illustrator 29.8.2, SVG Export Plug-In . SVG Version: 2.1.1 Build 3)  -->
  <defs>
    <style>
      .st0 {
        fill: url(#Polished_Brass5);
      }

      .st1 {
        fill: url(#Polished_Brass);
      }

      .st2 {
        fill: url(#Dull_Brass);
      }

      .st3 {
        fill: url(#Polished_Brass4);
      }

      .st4 {
        fill: url(#Polished_Brass2);
      }

      .st5 {
        fill: url(#Polished_Brass1);
      }

      .st6 {
        fill: url(#Polished_Brass10);
      }

      .st7 {
        fill: url(#Polished_Brass3);
      }

      .st8 {
        fill: url(#Polished_Brass9);
      }

      .st9 {
        fill: url(#Polished_Brass6);
      }

      .st10 {
        fill: url(#Polished_Brass8);
      }

      .st11 {
        fill: url(#Polished_Brass11);
      }

      .st12 {
        fill: url(#Polished_Brass7);
      }
    </style>
    <linearGradient id="Dull_Brass" data-name="Dull Brass" x1="142.607" y1="319.89" x2="189.453" y2="-15.587" gradientUnits="userSpaceOnUse">
      <stop offset=".006" stop-color="#ebc17d"/>
      <stop offset=".185" stop-color="#dfb77c"/>
      <stop offset=".596" stop-color="#c08329"/>
      <stop offset=".871" stop-color="#eabe81"/>
      <stop offset="1" stop-color="#eedcc3"/>
    </linearGradient>
    <linearGradient id="Polished_Brass" data-name="Polished Brass" x1="155.737" y1="252.894" x2="159.726" y2="70.187" gradientUnits="userSpaceOnUse">
      <stop offset=".006" stop-color="#ebc17d"/>
      <stop offset=".185" stop-color="#edd089"/>
      <stop offset=".41" stop-color="#f4e8d9"/>
      <stop offset=".73" stop-color="#c08329"/>
      <stop offset=".949" stop-color="#eabe81"/>
    </linearGradient>
    <linearGradient id="Polished_Brass1" data-name="Polished Brass" x1="202.123" y1="253.907" x2="206.112" y2="71.2" xlink:href="#Polished_Brass"/>
    <linearGradient id="Polished_Brass2" data-name="Polished Brass" x1="108.664" y1="251.867" x2="112.653" y2="69.159" xlink:href="#Polished_Brass"/>
    <linearGradient id="Polished_Brass3" data-name="Polished Brass" x1="172.136" y1="253.253" x2="176.126" y2="70.545" xlink:href="#Polished_Brass"/>
    <linearGradient id="Polished_Brass4" data-name="Polished Brass" x1="139.074" y1="252.531" x2="143.063" y2="69.823" xlink:href="#Polished_Brass"/>
    <linearGradient id="Polished_Brass5" data-name="Polished Brass" x1="106.589" y1="251.821" x2="110.579" y2="69.114" xlink:href="#Polished_Brass"/>
    <linearGradient id="Polished_Brass6" data-name="Polished Brass" x1="203.264" y1="253.932" x2="207.254" y2="71.225" xlink:href="#Polished_Brass"/>
    <linearGradient id="Polished_Brass7" data-name="Polished Brass" x1="111.038" y1="251.919" x2="115.027" y2="69.211" xlink:href="#Polished_Brass"/>
    <linearGradient id="Polished_Brass8" data-name="Polished Brass" x1="205.134" y1="253.973" x2="209.123" y2="71.266" xlink:href="#Polished_Brass"/>
    <linearGradient id="Polished_Brass9" data-name="Polished Brass" x1="92.38" y1="251.511" x2="96.37" y2="68.804" xlink:href="#Polished_Brass"/>
    <linearGradient id="Polished_Brass10" data-name="Polished Brass" x1="223.677" y1="254.378" x2="227.666" y2="71.671" xlink:href="#Polished_Brass"/>
    <linearGradient id="Polished_Brass11" data-name="Polished Brass" x1="158.346" y1="252.951" x2="162.336" y2="70.244" xlink:href="#Polished_Brass"/>
  </defs>
  <g>
    <path class="st2" d="M161.003,300v-19.846l5.057-.948c22.829-4.288,26-8.275,26.427-9.394.471-1.233-1.268-5.306-5.171-12.109l-1.375-2.473c-5.314-9.558-16.082-28.929-44.092-75.553-20.358,29.597-33.37,49.797-49.561,76.822-5.562,9.139-4.939,11.549-4.851,11.795,1.712,4.706,23.817,9.061,33.257,10.919l5.011.987v19.8H.168v-19.778l4.99-1.004c25.331-5.097,38.156-9.916,52.009-26.576,19.734-24.397,35.193-46.607,51.561-70.123,5.9-8.475,11.975-17.203,18.432-26.293-5.433-9.17-10.53-17.876-15.508-26.378-14.336-24.486-27.878-47.613-45.602-75.241-16.113-25.347-19.719-27.876-48.27-33.832l-4.952-1.033V0h146.168v19.906l-5.116.9c-20.216,3.557-21.704,7.333-21.759,7.493-.04.162-.294,1.791,3.394,8.311,9.056,16.6,21.05,37.201,37.618,65.647,16.206-23.181,28.309-43.219,38.129-60.01,5.194-8.941,4.817-11.067,4.689-11.402-.826-2.165-6.893-5.661-31.101-10.043l-5.091-.922V0h121.316v19.689l-4.897,1.074c-35.837,7.862-42.986,12.01-58.84,34.139-10.991,15.116-19.549,27.201-28.61,39.995-6.527,9.216-13.249,18.709-20.964,29.44,10.957,17.664,20.388,33.333,29.531,48.526,13.537,22.488,26.322,43.728,41.318,66.769,18.765,28.941,24.614,34.496,56.025,39.551l5.194.835v19.983h-158.829Z"/>
    <path d="M167.034,293.079v-7.044c37.512-7.044,35.168-14.969,25.321-32.138-5.158-9.245-15.943-29.056-50.173-85.847-24.383,35.22-37.981,56.351-54.862,84.527-13.129,21.571-5.627,25.975,32.354,33.458v7.044H6.199v-7.044c26.259-5.282,40.326-10.567,55.331-28.615,28.134-34.78,47.359-64.718,73.149-100.818-22.507-37.86-38.919-67.358-63.771-106.098C53.558,23.209,48.4,20.128,18.859,13.965v-7.044h134.107v7.044c-30.01,5.282-30.479,12.326-22.507,26.414,9.847,18.05,22.976,40.502,42.202,73.521,17.35-24.213,30.479-45.345,43.608-67.797,11.254-19.373,8.44-25.094-30.479-32.138v-7.044h109.255v7.044c-36.106,7.922-45.015,12.326-62.364,36.54-20.163,27.734-32.823,46.226-52.517,73.521,29.072,46.665,47.828,80.125,73.618,119.747,19.694,30.376,27.197,36.981,60.02,42.264v7.044h-146.767Z"/>
  </g>
  <ellipse cx="160" cy="151.508" rx="83.303" ry="78.097"/>
  <g>
    <path class="st1" d="M169.925,60.952l5.598,9.752c3.365,4.918,4.75,9.953,2.737,15.894-.078.229-.231.377-.459.447-6.355,1.844-11.888,7.041-16.043,12.794-.177.242-.123.414.162.518,4.068,1.475,8.001,3.136,11.797,4.983,8.003,3.896,15.756,8.091,23.258,12.587.815.488.874.41.175-.233-8.762-8.038-19.596-15.751-30.862-19.964-.123-.048-.185-.186-.137-.31.016-.041.043-.078.079-.104,19.731-14.121,36.628,16.237,43.177,29.71.142.293.05.421-.278.382-7.83-.964-15.855-1.501-24.941-1.993-7.112-.382-13.525-1.56-18.903-4.989-6.605-4.206-9.903-10.333-9.895-18.379,0-.237-.119-.343-.356-.317-14.03,1.566-27.303,6.439-37.567,15.9-.535.496-1.005,1.033-1.411,1.611-.065.095-.052.108.039.039,10.801-7.811,23.912-12.548,37.237-12.723.193,0,.349.158.348.351,0,.019-.002.038-.005.057-.647,3.74-.509,7.293.414,10.658.054.201.018.416-.097.589-.315.466-.667.874-1.055,1.223-5.022,4.53-12.309,6.459-19.33,5.973-8.821-.615-17.693-.654-25.95,2.058-.068.022-.141-.014-.163-.082-.009-.028-.009-.058.002-.086,8.135-21.408,25.879-39.67,51.008-30.112.229.086.349.006.362-.239.5-10.074,2.293-19.807,5.378-29.199.147-.449.11-.466-.11-.052-3.076,5.768-5.514,11.825-7.313,18.172-.716,2.532-1.208,5.097-1.475,7.695-.004.072-.068.125-.142.119-.023-.002-.045-.009-.065-.022l-6.439-4.323c-.186-.125-.298-.298-.337-.518-1.443-7.766,1.437-14.257,6.342-20.042,1.139-1.277,2.17-2.336,3.093-3.177,1.657-1.51,3.741-3.197,6.251-5.061l3.851-2.375c.329-.201.759-.098.961.231.048.078.079.164.094.254.138.867.462,1.635.971,2.304Z"/>
    <path class="st5" d="M191.248,82.819c5.924,2.614,11.368,6.204,16.334,10.768,10.348,9.494,14.386,22.857,11.124,36.764-.026.108-.093.153-.201.136l-5.578-1.003c-.082-.013-.116-.06-.104-.142,1.998-12.429-.572-23.567-7.707-33.412-3.784-5.22-8.454-9.53-14.011-12.93-.047-.03-.058-.071-.032-.123h.006c.039-.073.095-.093.168-.058Z"/>
    <path class="st4" d="M126.23,82.819c.043-.017.075-.006.097.032l.006.006c.03.065.017.114-.039.149-6.027,3.663-11.012,8.417-14.956,14.263-6.359,9.414-8.624,20.074-6.795,31.982.016.107-.056.207-.162.227l-5.391,1.016c-.116.022-.19-.026-.22-.142-2.222-8.706-1.445-17.044,2.33-25.012,4.886-10.328,14.619-17.674,25.129-22.521Z"/>
    <path class="st7" d="M185.392,148.252c-.181.013-.272.11-.272.291v.168c0,.026.013.039.039.039,1.665.099,2.977.675,3.935,1.728.751.833,1.107,1.948,1.068,3.346-.136,4.763-1.618,10.451-6.801,11.694-1.816.44-3.756.582-5.818.427-7.136-.526-14.177-1.038-21.123-1.534-.185-.011-.327-.168-.316-.35,0-.015.003-.03.006-.045l6.484-34.37c.03-.151.121-.222.272-.214,6.95.483,14.183,1.027,21.699,1.631,8.135.654,9.371,5.792,6.976,12.568-1.014,2.873-3.063,4.414-6.148,4.621ZM181.858,142.26l.22-1.145c.311-1.609-.352-2.472-1.987-2.589l-8.717-.621c-.116-.009-.186.045-.207.162l-1.107,5.785c-.022.12.055.234.171.256.01.002.02.003.03.003l8.4.602c1.795.129,2.86-.688,3.197-2.453ZM179.729,156.005c.822-1.844,1.01-4.388-1.786-4.64-2.869-.255-5.788-.479-8.756-.673-.267-.017-.425.106-.472.369l-1.113,5.908c-.047.267.063.412.33.434,3.464.324,6.34.516,8.626.576,1.51.043,2.567-.615,3.171-1.974Z"/>
    <path class="st3" d="M147.223,140.732c.198-1.795-.522-2.727-2.161-2.796-1.691-.073-3.531.03-5.52.311-1.896.272-2.854,1.281-2.925,3.145-.073,1.777.774,2.662,2.543,2.653,4.396-.03,8.307.19,11.733.66,4.096.563,5.533,2.873,5.54,6.769,0,3.279-.326,5.893-.977,7.843-1.56,4.666-7.365,6.193-11.836,6.569-4.81.401-8.514.457-11.111.168-5.857-.66-6.866-5.85-6.42-10.736.019-.216.195-.382.408-.388l8.245-.375c.384-.017.552.164.505.544-.259,2.045.628,3.119,2.66,3.223,2.373.116,4.582-.03,6.627-.44.945-.194,1.78-.854,2.051-1.806.427-1.482.835-4.122-1.482-4.168-3.715-.069-7.367-.201-10.956-.395-2.977-.162-5.973-1.424-6.653-4.614-.639-2.985-.513-6.075.375-9.267,1.404-5.028,5.371-6.64,10.102-7.151,5.112-.552,9.34-.613,12.684-.181,5.637.718,6.297,5.753,5.695,10.341-.022.168-.164.297-.337.304l-8.232.382c-.414.017-.6-.181-.557-.595Z"/>
    <path class="st0" d="M124.968,156.749c-.252,11.027-10.904,13.169-19.816,13.713-7.099.44-12.283-2.129-12.445-9.992-.082-3.883-.136-7.792-.162-11.726-.043-6.851,2.949-11.258,8.976-13.221,4.34-1.415,8.956-2.041,13.849-1.877,4.017.134,6.784,1.713,8.303,4.737.772,1.545,1.204,4.327,1.294,8.348.078,3.331.078,6.67,0,10.018ZM115.235,146.44c-.058-1.928-.582-4.245-2.97-4.349-1.734-.078-3.773.138-6.116.647-2.205.479-3.441,1.691-3.708,3.637-.511,3.773-.149,8.038-.013,11.875.091,2.541,1.277,3.792,3.559,3.753,1.777-.03,3.654-.278,5.63-.744,2.356-.552,3.566-2.039,3.63-4.459.095-3.331.091-6.784-.013-10.361Z"/>
    <path class="st9" d="M212.999,164.806l-12.173-2.304c-.28-.052-.505.039-.673.272l-3.404,4.692c-.134.181-.311.252-.531.214l-9.118-1.657c-.328-.06-.399-.227-.214-.498l20.955-30.953c.134-.198.319-.291.557-.278,5.436.311,14.334,2.045,14.483,8.678.211,9.724.399,19.578.563,29.562.004.259-.123.378-.382.356-3.307-.265-9.875-1.624-9.733-5.954.017-.548.039-1.094.065-1.637.009-.276-.123-.44-.395-.492ZM213.303,142.803l-8.484,13.033c-.078.12-.043.28.077.358.028.018.059.031.092.037l8.555,1.631c.276.052.416-.063.421-.343.112-4.608.157-9.248.136-13.92,0-.263-.058-.516-.175-.757-.084-.178-.297-.253-.474-.168-.06.029-.111.074-.147.13Z"/>
    <path class="st12" d="M85.777,161.13c10.607,20.98,31.516,34.208,53.176,41.825.111.04.233-.021.273-.136.009-.027.013-.055.012-.084-.155-2.692-.777-5.345-1.864-7.96-3.024-7.3-6.948-14.619-11.772-21.958-.094-.144-.054-.336.09-.43.041-.027.088-.044.137-.049l7.973-.835c.253-.028.5.09.634.304,2.045,3.27,3.93,6.493,5.656,9.668,4.375,8.038,7.287,18.321,6.057,27.432-.531,3.922-2.036,7.257-4.517,10.005-2.472,2.472-5.695,4.306-9.668,5.501-.496.039-1.163.091-2,.155-.703.056-1.357-.006-1.961-.188-3.318-.992-6.316-2.742-8.995-5.248,6.204,1.337,11.629.369,16.276-2.906,1.454-1.376,2.638-2.925,3.553-4.646.129-.246.063-.414-.201-.505-19.175-6.614-36.674-18.547-48.413-34.965-2.899-4.275-5.406-8.963-7.52-14.062-3.022-7.267-4.795-15.214-2.964-22.825.229-.949.358-.936.388.039.211,7.52,2.095,14.809,5.65,21.867Z"/>
    <path class="st10" d="M221.496,185.644c-11.157,11.629-25.459,20.262-40.602,25.465-.237.082-.283.227-.136.434l2.414,3.462c1.838,1.868,3.93,3.139,6.277,3.812,4.241,1.217,8.04,1.197,11.396-.058-2.149,2.3-4.819,4.066-8.012,5.3-1.713.669-2.962.852-3.747.55-.824-.315-1.335-.365-1.534-.149-3.771-1.307-6.814-2.998-9.131-5.074-9.138-9.668-4.731-26.999.835-37.418,1.859-3.473,3.853-6.886,5.98-10.238.108-.168.263-.242.466-.22l8.083.822c.167.02.286.171.266.338-.005.046-.021.089-.046.128-4.793,7.347-8.715,14.651-11.765,21.912-.992,2.364-1.629,4.951-1.909,7.759-.02.167.078.329.239.395.147.056.293.056.44,0,19.816-7.274,38.861-18.58,50.212-36.978,5.156-8.318,7.919-17.223,8.29-26.714.026-.647.112-.656.259-.026,1.391,5.973.854,11.616-1.055,17.725-3.395,10.907-9.136,20.497-17.221,28.772Z"/>
    <path class="st8" d="M75.539,144.583c.928,17.395,6.122,33.186,15.583,47.371,5.703,8.547,12.826,16.282,21.369,23.207-4.474-2.291-8.521-5.018-12.14-8.18-1.933-1.683-4.258-4.01-6.976-6.983-2.658-2.904-5.253-6.521-7.785-10.853-5.82-9.957-9.23-20.974-10.231-33.05-.203-2.433-.142-6.271.181-11.513Z"/>
    <path class="st6" d="M244.198,144.932c.544,2.83.692,5.071.447,6.724-.207,1.432-.334,2.612-.382,3.54-.035.621-.078,1.223-.129,1.806-1.022,11.631-4.489,22.523-10.4,32.674-2.394,4.112-4.959,7.597-7.695,10.458-2.071,2.17-4.278,4.398-6.62,6.685-3.016,2.942-7.587,6.049-13.713,9.319,5.19-3.999,10.046-8.54,14.567-13.622,12.158-13.659,19.718-29.456,22.682-47.39.388-2.334.802-5.732,1.243-10.193Z"/>
    <path class="st11" d="M162.231,221.49l.149,8.115c-1.268.449-2.936.578-5.002.388-.414-.039-.787-.25-1.12-.634.052-.013.11-.026.175-.039.039-.004.058-.028.058-.071l.162-8.529-.052-49.164c0-.095.047-.142.142-.142l5.352.032c.129,0,.194.065.194.194l-.058,49.85Z"/>
  </g>
</svg>